<svg width="210" height="80" viewBox="0 0 210 80" fill="none" xmlns="http://www.w3.org/2000/svg">
<g clip-path="url(#clip0_2015_2)">
<path d="M50.5078 26C50.3125 26 50.1465 25.8861 50.0098 25.6582L44.2969 15.9512C44.2448 15.86 44.1992 15.7754 44.1602 15.6973C44.1276 15.6126 44.1113 15.5312 44.1113 15.4531C44.1113 15.401 44.1374 15.3359 44.1895 15.2578C44.2415 15.1732 44.3229 15.1309 44.4336 15.1309C44.5443 15.1439 44.6354 15.196 44.707 15.2871C44.7852 15.3783 44.86 15.4857 44.9316 15.6094L50.5176 25.1211L56.0938 15.6094C56.1654 15.4857 56.2402 15.3783 56.3184 15.2871C56.3965 15.196 56.4811 15.1439 56.5723 15.1309C56.696 15.1309 56.7839 15.1699 56.8359 15.248C56.888 15.3262 56.9141 15.401 56.9141 15.4727C56.9141 15.5443 56.8913 15.6224 56.8457 15.707C56.8066 15.7852 56.7611 15.8665 56.709 15.9512L51.0156 25.6582C50.8854 25.8861 50.7161 26 50.5078 26ZM58.623 26C58.4668 26 58.3073 25.9902 58.1445 25.9707C57.9883 25.9512 57.9102 25.847 57.9102 25.6582C57.9102 25.4954 57.985 25.4043 58.1348 25.3848C58.291 25.3652 58.4538 25.3555 58.623 25.3555H62.1094V15.7656H58.623C58.4538 15.7656 58.291 15.7559 58.1348 15.7363C57.985 15.7168 57.9102 15.6257 57.9102 15.4629C57.9102 15.2741 57.9883 15.1699 58.1445 15.1504C58.3073 15.1309 58.4668 15.1211 58.623 15.1211H66.4258C66.6146 15.1211 66.7773 15.1309 66.9141 15.1504C67.0573 15.1699 67.1289 15.2676 67.1289 15.4434C67.1289 15.6191 67.0573 15.7168 66.9141 15.7363C66.7773 15.7559 66.6146 15.7656 66.4258 15.7656H62.9395V25.3555H66.4258C66.6146 25.3555 66.7773 25.3652 66.9141 25.3848C67.0573 25.4043 67.1289 25.502 67.1289 25.6777C67.1289 25.8535 67.0573 25.9512 66.9141 25.9707C66.7773 25.9902 66.6146 26 66.4258 26H58.623ZM75.6641 26.1953C74.7396 26.1953 73.8249 26.1367 72.9199 26.0195C72.0215 25.9023 71.224 25.7591 70.5273 25.5898C69.8372 25.4206 69.3359 25.2643 69.0234 25.1211C68.8477 25.0365 68.7598 24.9095 68.7598 24.7402C68.7598 24.5514 68.8444 24.457 69.0137 24.457C69.0592 24.457 69.1048 24.4668 69.1504 24.4863C69.4889 24.623 70.013 24.776 70.7227 24.9453C71.4323 25.1081 72.2331 25.2513 73.125 25.375C74.0234 25.4922 74.9186 25.5508 75.8105 25.5508C76.6764 25.5508 77.4772 25.4727 78.2129 25.3164C78.9551 25.1536 79.5508 24.8835 80 24.5059C80.4492 24.1283 80.6738 23.6139 80.6738 22.9629C80.6738 22.4486 80.5046 22.0482 80.166 21.7617C79.8275 21.4688 79.3717 21.2507 78.7988 21.1074C78.2259 20.9642 77.5814 20.8633 76.8652 20.8047C76.1556 20.7461 75.4199 20.7038 74.6582 20.6777C73.8965 20.6452 73.1576 20.5931 72.4414 20.5215C71.7318 20.4499 71.0905 20.3294 70.5176 20.1602C69.9447 19.9909 69.4889 19.737 69.1504 19.3984C68.8118 19.0599 68.6426 18.6074 68.6426 18.041C68.6426 17.416 68.8086 16.9017 69.1406 16.498C69.4792 16.0879 69.9316 15.7689 70.498 15.541C71.0645 15.3066 71.6992 15.1439 72.4023 15.0527C73.1055 14.9616 73.8249 14.916 74.5605 14.916C75.3678 14.916 76.1523 14.9648 76.9141 15.0625C77.6758 15.1536 78.3594 15.2741 78.9648 15.4238C79.5703 15.5736 80.0391 15.7266 80.3711 15.8828C80.4753 15.9284 80.5273 16.0163 80.5273 16.1465C80.5273 16.2376 80.4948 16.3223 80.4297 16.4004C80.3711 16.4785 80.2865 16.5176 80.1758 16.5176C80.1107 16.5176 80.0553 16.5046 80.0098 16.4785C79.3262 16.1921 78.4993 15.9674 77.5293 15.8047C76.5592 15.6419 75.5827 15.5605 74.5996 15.5605C73.7012 15.5605 72.8613 15.6322 72.0801 15.7754C71.2988 15.9186 70.6673 16.166 70.1855 16.5176C69.7103 16.8691 69.4727 17.3574 69.4727 17.9824C69.4727 18.4316 69.6419 18.7799 69.9805 19.0273C70.319 19.2747 70.7747 19.4603 71.3477 19.584C71.9206 19.7012 72.5618 19.7858 73.2715 19.8379C73.9876 19.8835 74.7266 19.929 75.4883 19.9746C76.25 20.0137 76.9857 20.0788 77.6953 20.1699C78.4115 20.2611 79.056 20.4076 79.6289 20.6094C80.2018 20.8112 80.6576 21.1009 80.9961 21.4785C81.3346 21.8561 81.5039 22.3509 81.5039 22.9629C81.5039 23.5879 81.3411 24.1087 81.0156 24.5254C80.6966 24.9421 80.2604 25.2741 79.707 25.5215C79.1536 25.7624 78.5286 25.9349 77.832 26.0391C77.1354 26.1432 76.4128 26.1953 75.6641 26.1953ZM90.3613 26.2051C88.2324 26.2051 86.6374 25.7689 85.5762 24.8965C84.515 24.0241 83.9844 22.569 83.9844 20.5312V15.8047C83.9844 15.6354 84.0104 15.4792 84.0625 15.3359C84.1146 15.1927 84.235 15.1211 84.4238 15.1211C84.5866 15.1211 84.6908 15.1927 84.7363 15.3359C84.7884 15.4792 84.8145 15.6354 84.8145 15.8047V20.5312C84.8145 21.6641 84.9805 22.6048 85.3125 23.3535C85.6445 24.0957 86.2142 24.6491 87.0215 25.0137C87.8288 25.3783 88.9421 25.5605 90.3613 25.5605C91.7806 25.5605 92.8906 25.3783 93.6914 25.0137C94.4987 24.6491 95.0651 24.0957 95.3906 23.3535C95.7227 22.6048 95.8887 21.6641 95.8887 20.5312V15.8047C95.8887 15.6354 95.9147 15.4792 95.9668 15.3359C96.0189 15.1927 96.1263 15.1211 96.2891 15.1211C96.4779 15.1211 96.5951 15.1927 96.6406 15.3359C96.6927 15.4792 96.7188 15.6354 96.7188 15.8047V20.5312C96.7188 22.569 96.1914 24.0241 95.1367 24.8965C94.082 25.7689 92.4902 26.2051 90.3613 26.2051ZM98.5449 26.0977C98.3561 26.0977 98.252 26.013 98.2324 25.8438C98.2129 25.668 98.2487 25.4987 98.3398 25.3359L103.721 15.6191C103.825 15.4303 103.906 15.3001 103.965 15.2285C104.023 15.1569 104.111 15.1211 104.229 15.1211C104.32 15.1211 104.401 15.1569 104.473 15.2285C104.544 15.2936 104.632 15.4238 104.736 15.6191L110.127 25.3457C110.199 25.4694 110.234 25.5964 110.234 25.7266C110.234 25.974 110.124 26.0977 109.902 26.0977C109.818 26.0977 109.73 26.0651 109.639 26C109.548 25.9414 109.456 25.8307 109.365 25.668L107.705 22.6602H100.752L99.0723 25.707C98.9355 25.9674 98.7598 26.0977 98.5449 26.0977ZM101.035 22.084H107.422L104.229 16.2539L101.035 22.084ZM112.793 26C112.591 26 112.474 25.9837 112.441 25.9512C112.409 25.9121 112.393 25.8079 112.393 25.6387V15.7559C112.393 15.5866 112.422 15.4401 112.48 15.3164C112.539 15.1862 112.663 15.1211 112.852 15.1211C113.008 15.1211 113.109 15.1895 113.154 15.3262C113.2 15.4564 113.223 15.5996 113.223 15.7559V25.3555H121.611C121.742 25.3555 121.839 25.3913 121.904 25.4629C121.976 25.528 122.012 25.5996 122.012 25.6777C122.012 25.7624 121.976 25.8372 121.904 25.9023C121.839 25.9674 121.742 26 121.611 26H112.793ZM130.117 26.1953C129.193 26.1953 128.278 26.1367 127.373 26.0195C126.475 25.9023 125.677 25.7591 124.98 25.5898C124.29 25.4206 123.789 25.2643 123.477 25.1211C123.301 25.0365 123.213 24.9095 123.213 24.7402C123.213 24.5514 123.298 24.457 123.467 24.457C123.512 24.457 123.558 24.4668 123.604 24.4863C123.942 24.623 124.466 24.776 125.176 24.9453C125.885 25.1081 126.686 25.2513 127.578 25.375C128.477 25.4922 129.372 25.5508 130.264 25.5508C131.13 25.5508 131.93 25.4727 132.666 25.3164C133.408 25.1536 134.004 24.8835 134.453 24.5059C134.902 24.1283 135.127 23.6139 135.127 22.9629C135.127 22.4486 134.958 22.0482 134.619 21.7617C134.281 21.4688 133.825 21.2507 133.252 21.1074C132.679 20.9642 132.035 20.8633 131.318 20.8047C130.609 20.7461 129.873 20.7038 129.111 20.6777C128.35 20.6452 127.611 20.5931 126.895 20.5215C126.185 20.4499 125.544 20.3294 124.971 20.1602C124.398 19.9909 123.942 19.737 123.604 19.3984C123.265 19.0599 123.096 18.6074 123.096 18.041C123.096 17.416 123.262 16.9017 123.594 16.498C123.932 16.0879 124.385 15.7689 124.951 15.541C125.518 15.3066 126.152 15.1439 126.855 15.0527C127.559 14.9616 128.278 14.916 129.014 14.916C129.821 14.916 130.605 14.9648 131.367 15.0625C132.129 15.1536 132.812 15.2741 133.418 15.4238C134.023 15.5736 134.492 15.7266 134.824 15.8828C134.928 15.9284 134.98 16.0163 134.98 16.1465C134.98 16.2376 134.948 16.3223 134.883 16.4004C134.824 16.4785 134.74 16.5176 134.629 16.5176C134.564 16.5176 134.508 16.5046 134.463 16.4785C133.779 16.1921 132.952 15.9674 131.982 15.8047C131.012 15.6419 130.036 15.5605 129.053 15.5605C128.154 15.5605 127.314 15.6322 126.533 15.7754C125.752 15.9186 125.12 16.166 124.639 16.5176C124.163 16.8691 123.926 17.3574 123.926 17.9824C123.926 18.4316 124.095 18.7799 124.434 19.0273C124.772 19.2747 125.228 19.4603 125.801 19.584C126.374 19.7012 127.015 19.7858 127.725 19.8379C128.441 19.8835 129.18 19.929 129.941 19.9746C130.703 20.0137 131.439 20.0788 132.148 20.1699C132.865 20.2611 133.509 20.4076 134.082 20.6094C134.655 20.8112 135.111 21.1009 135.449 21.4785C135.788 21.8561 135.957 22.3509 135.957 22.9629C135.957 23.5879 135.794 24.1087 135.469 24.5254C135.15 24.9421 134.714 25.2741 134.16 25.5215C133.607 25.7624 132.982 25.9349 132.285 26.0391C131.589 26.1432 130.866 26.1953 130.117 26.1953ZM143.447 26C143.226 26 143.115 25.8861 143.115 25.6582V15.4824C143.115 15.2415 143.242 15.1211 143.496 15.1211H147.969C148.672 15.1211 149.352 15.1406 150.01 15.1797C150.667 15.2188 151.253 15.3197 151.768 15.4824C152.288 15.6452 152.699 15.9121 152.998 16.2832C153.304 16.6543 153.457 17.1719 153.457 17.8359C153.457 18.3633 153.359 18.7865 153.164 19.1055C152.969 19.418 152.728 19.6556 152.441 19.8184C152.155 19.9746 151.872 20.0788 151.592 20.1309C151.312 20.1764 151.087 20.1992 150.918 20.1992C151.445 20.2513 151.947 20.362 152.422 20.5312C152.897 20.694 153.285 20.9577 153.584 21.3223C153.883 21.6803 154.033 22.1784 154.033 22.8164C154.033 23.6953 153.812 24.3659 153.369 24.8281C152.933 25.2839 152.34 25.5931 151.592 25.7559C150.843 25.9186 150.003 26 149.072 26H143.447ZM143.945 19.9551H148.564C149.502 19.9551 150.27 19.8997 150.869 19.7891C151.468 19.6784 151.911 19.4733 152.197 19.1738C152.484 18.8678 152.627 18.4219 152.627 17.8359C152.627 17.3932 152.516 17.0189 152.295 16.7129C152.08 16.4004 151.663 16.166 151.045 16.0098C150.433 15.847 149.528 15.7656 148.33 15.7656H143.945V19.9551ZM143.945 25.3555H149.443C150.322 25.3555 151.016 25.2871 151.523 25.1504C152.031 25.0072 152.406 24.8151 152.646 24.5742C152.887 24.3333 153.04 24.0632 153.105 23.7637C153.171 23.4577 153.203 23.1419 153.203 22.8164C153.203 21.918 152.783 21.306 151.943 20.9805C151.11 20.6549 149.984 20.4922 148.564 20.4922H143.945V25.3555ZM160.791 26C160.602 26 160.482 25.9349 160.43 25.8047C160.378 25.668 160.352 25.515 160.352 25.3457V21.3809L155.723 15.8438C155.612 15.7135 155.557 15.5833 155.557 15.4531C155.557 15.2318 155.664 15.1211 155.879 15.1211C156.022 15.1211 156.162 15.2025 156.299 15.3652L160.762 20.7754L165.225 15.3652C165.355 15.209 165.492 15.1309 165.635 15.1309C165.85 15.1309 165.957 15.248 165.957 15.4824C165.957 15.5931 165.902 15.7135 165.791 15.8438L161.182 21.4004V25.3262C161.182 25.515 161.156 25.6745 161.104 25.8047C161.058 25.9349 160.954 26 160.791 26Z" fill="black"/>
<path d="M21.0324 67.656L20.7444 68.264C20.7444 68.328 20.7764 68.36 20.8404 68.36C21.9284 68.36 23.1977 67.4747 24.6484 65.704C25.843 64.2533 27.3044 62.248 29.0324 59.688C28.435 59.7307 27.4537 59.752 26.0884 59.752C24.7444 59.752 23.8377 59.72 23.3684 59.656C22.899 59.592 22.6537 59.4107 22.6324 59.112C22.6324 58.984 22.6644 58.9093 22.7284 58.888C22.7924 58.8453 23.5497 58.824 25.0004 58.824C26.451 58.824 28.019 58.792 29.7044 58.728C33.011 53.9067 35.699 50.5147 37.7684 48.552C34.2057 49.128 30.3657 49.416 26.2484 49.416C24.755 49.416 22.963 49.3627 20.8724 49.256C20.7017 49.256 20.6164 49.3307 20.6164 49.48C20.6164 49.5227 20.6377 49.6293 20.6804 49.8C20.6804 49.992 20.531 50.088 20.2324 50.088C19.955 50.088 19.5924 49.9387 19.1444 49.64C18.6964 49.3413 18.4617 49.032 18.4404 48.712C18.4404 48.1147 18.8244 47.816 19.5924 47.816C23.3044 48.072 26.7924 48.2 30.0564 48.2C33.3204 48.2 36.243 48.008 38.8244 47.624C41.3844 45.4907 43.859 44.424 46.2484 44.424C47.2084 44.424 47.6884 44.5947 47.6884 44.936C47.6884 45.5333 46.3977 46.2587 43.8164 47.112C42.4937 47.56 40.9577 47.9547 39.2084 48.296C37.6724 49.7467 35.923 51.8907 33.9604 54.728C33.299 55.6453 32.4137 56.9467 31.3044 58.632L36.0404 58.28C36.4884 58.28 36.7124 58.5147 36.7124 58.984C36.7124 59.176 36.5097 59.368 36.1044 59.56C35.699 59.7307 35.2937 59.944 34.8884 60.2C34.483 60.456 34.2804 60.7653 34.2804 61.128C34.2804 61.4693 34.1737 61.64 33.9604 61.64C32.979 61.64 32.4884 61.448 32.4884 61.064C32.4884 60.6373 32.755 60.1573 33.2884 59.624C33.2884 59.5387 33.2137 59.496 33.0644 59.496L31.1764 59.592L30.6644 59.624C27.9337 63.8267 25.8004 66.6427 24.2644 68.072C22.771 69.4587 21.4377 70.152 20.2644 70.152C19.5177 70.152 19.1444 69.8533 19.1444 69.256C19.1444 68.8507 19.3044 68.4347 19.6244 68.008C19.9444 67.5813 20.2537 67.368 20.5524 67.368C20.8724 67.368 21.0324 67.464 21.0324 67.656ZM45.1604 45.32C43.603 45.32 41.9604 46.0133 40.2324 47.4C42.6004 46.9733 44.179 46.4933 44.9684 45.96C45.267 45.7467 45.4164 45.5867 45.4164 45.48C45.4164 45.3733 45.331 45.32 45.1604 45.32ZM42.6716 63.688C42.821 63.5813 42.9596 63.528 43.0876 63.528C43.2156 63.528 43.2796 63.6027 43.2796 63.752V63.816C41.6796 65.096 40.101 66.3013 38.5436 67.432C36.9863 68.5413 35.845 69.096 35.1196 69.096C34.5863 69.096 34.3196 68.808 34.3196 68.232C34.3196 67.656 34.5756 67.08 35.0876 66.504C35.5996 65.928 36.101 65.4267 36.5916 65C37.1036 64.5733 37.3596 64.296 37.3596 64.168C37.3596 64.0187 37.2743 63.8587 37.1036 63.688C36.9543 63.496 36.8263 63.368 36.7196 63.304C36.357 63.6667 35.5676 64.328 34.3516 65.288L34.2236 64.808C35.5676 63.7413 36.3463 63.0267 36.5596 62.664V62.376C36.5596 61.8427 36.613 61.48 36.7196 61.288C36.8263 61.096 37.0823 60.8293 37.4876 60.488C37.893 60.1467 38.1703 59.976 38.3196 59.976C38.469 59.976 38.597 60.0293 38.7036 60.136C38.8316 60.2427 38.8956 60.3493 38.8956 60.456C38.8956 60.5627 38.853 60.6907 38.7676 60.84C38.7036 60.968 38.629 61.0853 38.5436 61.192C38.4796 61.2773 38.3836 61.3947 38.2556 61.544C38.1276 61.672 38.0423 61.768 37.9996 61.832C37.9783 61.8747 37.9463 61.96 37.9036 62.088C37.8823 62.216 37.8183 62.3227 37.7116 62.408C37.605 62.4933 37.5516 62.6 37.5516 62.728C37.5516 62.856 37.637 63.144 37.8076 63.592C37.9783 64.0187 38.0636 64.3387 38.0636 64.552C38.0636 64.744 37.669 65.224 36.8796 65.992C36.0903 66.7387 35.6956 67.3467 35.6956 67.816C35.6956 68.072 35.813 68.2 36.0476 68.2C36.3463 68.2 36.901 67.9333 37.7116 67.4L38.0956 67.144C39.4823 66.184 40.7836 65.2133 41.9996 64.232L42.6716 63.688ZM45.9581 65.16C45.8301 65.16 45.7661 65.1173 45.7661 65.032C45.7661 64.9253 45.8408 64.808 45.9901 64.68C46.6941 64.104 47.0461 63.5813 47.0461 63.112C47.0461 62.8133 46.7795 62.6427 46.2461 62.6C45.2861 62.6213 44.1341 63.3147 42.7901 64.68C41.4675 66.0453 40.8061 67.0693 40.8061 67.752C40.8061 67.9867 40.9341 68.104 41.1901 68.104C41.4675 68.104 41.8301 67.9227 42.2781 67.56C42.6835 67.304 43.4408 66.664 44.5501 65.64C44.8061 65.384 45.0515 65.256 45.2861 65.256C45.5848 65.256 45.7341 65.3947 45.7341 65.672C45.7341 65.7787 45.7021 65.864 45.6381 65.928C45.5741 65.992 45.4568 66.1307 45.2861 66.344C45.1155 66.536 44.9661 66.7173 44.8381 66.888C44.4541 67.4427 44.2621 67.8053 44.2621 67.976C44.2621 68.4027 44.4328 68.616 44.7741 68.616C45.2221 68.616 46.0648 68.2107 47.3021 67.4C48.5395 66.568 49.6701 65.736 50.6941 64.904L52.2301 63.688C52.3795 63.5813 52.5181 63.528 52.6461 63.528C52.7741 63.528 52.8381 63.6027 52.8381 63.752V63.816C51.1955 65.2027 49.4568 66.504 47.6221 67.72C45.8088 68.936 44.6141 69.544 44.0381 69.544C43.3555 69.544 43.0141 69.1813 43.0141 68.456C43.0141 68.2853 43.0461 68.1253 43.1101 67.976C43.1741 67.8267 43.2061 67.72 43.2061 67.656C43.2061 67.592 43.1848 67.5493 43.1421 67.528C43.0781 67.528 42.6621 67.816 41.8941 68.392C41.1475 68.968 40.4861 69.256 39.9101 69.256C39.3555 69.256 39.0781 68.9573 39.0781 68.36C39.0781 67.7627 39.4728 66.9627 40.2621 65.96C41.0728 64.936 42.1501 64.008 43.4941 63.176C44.8381 62.344 46.1501 61.928 47.4301 61.928C47.7288 61.928 47.9741 62.0027 48.1661 62.152C48.3795 62.3013 48.4861 62.536 48.4861 62.856C48.4861 63.1547 48.1768 63.6133 47.5581 64.232C46.9395 64.8507 46.4061 65.16 45.9581 65.16ZM65.2166 63.784C60.7153 67.5387 57.9313 69.416 56.8646 69.416C56.246 69.416 55.9366 69.16 55.9366 68.648C55.9366 68.136 56.1606 67.528 56.6086 66.824C57.078 66.12 57.5366 65.5013 57.9846 64.968C58.454 64.4133 58.6886 64.0827 58.6886 63.976C58.6886 63.8693 58.6566 63.816 58.5926 63.816C56.6086 65.1387 55.4246 65.9493 55.0406 66.248C54.678 66.5467 54.07 67.0373 53.2166 67.72C52.3846 68.4027 51.8406 68.8293 51.5846 69C51.3286 69.1707 51.0513 69.256 50.7526 69.256C50.454 69.256 50.3046 69.128 50.3046 68.872C50.3046 68.5733 50.902 67.6347 52.0966 66.056C53.2486 64.4773 53.8246 63.592 53.8246 63.4C53.8246 63.3573 53.782 63.336 53.6966 63.336C53.6326 63.336 52.7153 63.9867 50.9446 65.288L50.8166 64.808C52.3313 63.592 53.3553 62.8133 53.8886 62.472C54.422 62.1307 54.8486 61.96 55.1686 61.96C55.51 61.96 55.6806 62.12 55.6806 62.44C55.6806 62.6533 55.0726 63.528 53.8566 65.064C52.662 66.5787 52.0646 67.4 52.0646 67.528C52.0646 67.6347 52.0966 67.688 52.1606 67.688C52.246 67.688 53.462 66.8347 55.8086 65.128C58.1766 63.4 59.6166 62.536 60.1286 62.536C60.278 62.536 60.4166 62.6 60.5446 62.728C60.694 62.8347 60.7686 62.9413 60.7686 63.048C60.7686 63.304 60.2033 64.1573 59.0726 65.608C57.942 67.0373 57.3766 67.848 57.3766 68.04C57.3766 68.232 57.5046 68.328 57.7606 68.328C58.038 68.328 58.614 68.04 59.4886 67.464C61.0886 66.4187 62.5606 65.3413 63.9046 64.232L64.6086 63.656C64.758 63.5493 64.8966 63.496 65.0246 63.496C65.1526 63.496 65.2166 63.56 65.2166 63.688V63.784ZM72.3124 63.688C72.483 63.5813 72.6217 63.528 72.7284 63.528C72.8564 63.528 72.9204 63.6027 72.9204 63.752V63.816C71.235 65.3093 69.4964 66.6213 67.7044 67.752C65.9124 68.8827 64.419 69.448 63.2244 69.448C62.2857 69.448 61.8164 68.8933 61.8164 67.784C61.8164 66.6533 62.4884 65.4267 63.8324 64.104C65.1977 62.7813 66.6697 62.12 68.2484 62.12C68.7177 62.1627 69.0057 62.2373 69.1124 62.344C69.2404 62.4507 69.3044 62.6 69.3044 62.792C69.3044 62.984 69.1017 63.336 68.6964 63.848C68.3124 64.3387 67.9604 64.584 67.6404 64.584C67.2777 64.52 67.0964 64.392 67.0964 64.2C67.0964 64.1147 67.1924 63.976 67.3844 63.784C67.747 63.464 67.9284 63.2293 67.9284 63.08C67.9284 62.9307 67.811 62.856 67.5764 62.856C66.8297 62.8773 65.891 63.496 64.7604 64.712C63.6297 65.9067 63.0644 66.8987 63.0644 67.688C63.0644 68.2853 63.4484 68.584 64.2164 68.584C65.0057 68.584 65.8484 68.3067 66.7444 67.752C68.323 66.792 69.9124 65.6507 71.5124 64.328L72.3124 63.688ZM80.6049 63.688C80.7542 63.5813 80.8929 63.528 81.0209 63.528C81.1489 63.528 81.2129 63.6027 81.2129 63.752V63.816C78.9942 65.6507 77.1489 67.0267 75.6769 67.944C74.2049 68.8613 72.8715 69.32 71.6769 69.32C70.7169 69.32 70.2369 68.8507 70.2369 67.912C70.2369 66.5253 70.9409 65.1067 72.3489 63.656C73.7569 62.184 74.9409 61.448 75.9009 61.448C76.4342 61.448 76.7009 61.7467 76.7009 62.344C76.5942 63.5173 74.9089 65.096 71.6449 67.08V67.4C71.6449 68.104 72.0075 68.456 72.7329 68.456C73.4795 68.456 74.2795 68.2107 75.1329 67.72C76.7969 66.7387 78.3542 65.6187 79.8049 64.36L80.6049 63.688ZM75.0689 62.44C74.5995 62.44 73.9915 62.8347 73.2449 63.624C72.5195 64.4133 72.0289 65.3093 71.7729 66.312C72.7969 65.6933 73.6609 65.0427 74.3649 64.36C75.0689 63.656 75.4209 63.1653 75.4209 62.888C75.4209 62.5893 75.3035 62.44 75.0689 62.44ZM86.9669 63.688C87.1375 63.5813 87.2762 63.528 87.3829 63.528C87.5109 63.528 87.5749 63.6027 87.5749 63.752V63.816C85.9322 65.2027 84.1935 66.504 82.3589 67.72C80.5455 68.936 79.3935 69.544 78.9029 69.544C78.4122 69.544 77.9962 69.448 77.6549 69.256C77.3349 69.0853 77.1749 68.8827 77.1749 68.648C77.1749 68.4133 77.2389 68.2213 77.3669 68.072C77.4949 67.9013 77.6122 67.816 77.7189 67.816C77.8255 67.816 77.9962 67.9867 78.2309 68.328C78.4869 68.648 78.7322 68.808 78.9669 68.808C79.4575 68.808 79.8415 68.2853 80.1189 67.24C80.3962 66.1947 80.5349 65.48 80.5349 65.096C80.5349 64.6907 80.5029 64.488 80.4389 64.488C80.3962 64.488 80.3535 64.5093 80.3109 64.552L79.3829 65.288L79.2549 64.808C80.5989 63.7413 81.3775 63.0267 81.5909 62.664C81.7189 62.3227 81.9002 62.152 82.1349 62.152C82.2842 62.152 82.3589 62.2053 82.3589 62.312C82.3589 62.4187 82.2842 62.6533 82.1349 63.016C81.9855 63.3573 81.7829 64.1467 81.5269 65.384C81.2922 66.6213 81.1749 67.336 81.1749 67.528C81.1749 67.72 81.2282 67.816 81.3349 67.816C82.8282 66.8987 84.4069 65.7573 86.0709 64.392L86.9669 63.688ZM94.7499 63.688C94.9205 63.5813 95.0592 63.528 95.1659 63.528C95.2939 63.528 95.3579 63.6027 95.3579 63.752V63.816C93.6725 65.3093 91.9339 66.6213 90.1419 67.752C88.3499 68.8827 86.8565 69.448 85.6619 69.448C84.7232 69.448 84.2539 68.8933 84.2539 67.784C84.2539 66.6533 84.9259 65.4267 86.2699 64.104C87.6352 62.7813 89.1072 62.12 90.6859 62.12C91.1552 62.1627 91.4432 62.2373 91.5499 62.344C91.6779 62.4507 91.7419 62.6 91.7419 62.792C91.7419 62.984 91.5392 63.336 91.1339 63.848C90.7499 64.3387 90.3979 64.584 90.0779 64.584C89.7152 64.52 89.5339 64.392 89.5339 64.2C89.5339 64.1147 89.6299 63.976 89.8219 63.784C90.1845 63.464 90.3659 63.2293 90.3659 63.08C90.3659 62.9307 90.2485 62.856 90.0139 62.856C89.2672 62.8773 88.3285 63.496 87.1979 64.712C86.0672 65.9067 85.5019 66.8987 85.5019 67.688C85.5019 68.2853 85.8859 68.584 86.6539 68.584C87.4432 68.584 88.2859 68.3067 89.1819 67.752C90.7605 66.792 92.3499 65.6507 93.9499 64.328L94.7499 63.688ZM98.1144 65.16C97.9864 65.16 97.9224 65.1173 97.9224 65.032C97.9224 64.9253 97.997 64.808 98.1464 64.68C98.8504 64.104 99.2024 63.5813 99.2024 63.112C99.2024 62.8133 98.9357 62.6427 98.4024 62.6C97.4424 62.6213 96.2904 63.3147 94.9464 64.68C93.6237 66.0453 92.9624 67.0693 92.9624 67.752C92.9624 67.9867 93.0904 68.104 93.3464 68.104C93.6237 68.104 93.9864 67.9227 94.4344 67.56C94.8397 67.304 95.597 66.664 96.7064 65.64C96.9624 65.384 97.2077 65.256 97.4424 65.256C97.741 65.256 97.8904 65.3947 97.8904 65.672C97.8904 65.7787 97.8584 65.864 97.7944 65.928C97.7304 65.992 97.613 66.1307 97.4424 66.344C97.2717 66.536 97.1224 66.7173 96.9944 66.888C96.6104 67.4427 96.4184 67.8053 96.4184 67.976C96.4184 68.4027 96.589 68.616 96.9304 68.616C97.3784 68.616 98.221 68.2107 99.4584 67.4C100.696 66.568 101.826 65.736 102.85 64.904L104.386 63.688C104.536 63.5813 104.674 63.528 104.802 63.528C104.93 63.528 104.994 63.6027 104.994 63.752V63.816C103.352 65.2027 101.613 66.504 99.7784 67.72C97.965 68.936 96.7704 69.544 96.1944 69.544C95.5117 69.544 95.1704 69.1813 95.1704 68.456C95.1704 68.2853 95.2024 68.1253 95.2664 67.976C95.3304 67.8267 95.3624 67.72 95.3624 67.656C95.3624 67.592 95.341 67.5493 95.2984 67.528C95.2344 67.528 94.8184 67.816 94.0504 68.392C93.3037 68.968 92.6424 69.256 92.0664 69.256C91.5117 69.256 91.2344 68.9573 91.2344 68.36C91.2344 67.7627 91.629 66.9627 92.4184 65.96C93.229 64.936 94.3064 64.008 95.6504 63.176C96.9944 62.344 98.3064 61.928 99.5864 61.928C99.885 61.928 100.13 62.0027 100.322 62.152C100.536 62.3013 100.642 62.536 100.642 62.856C100.642 63.1547 100.333 63.6133 99.7144 64.232C99.0957 64.8507 98.5624 65.16 98.1144 65.16ZM126.05 56.392C126.05 56.392 126.52 56.36 127.458 56.296C128.973 56.296 130.093 56.584 130.818 57.16C131.565 57.7147 131.938 58.5147 131.938 59.56C131.938 60.584 131.469 61.7893 130.53 63.176C129.592 64.5627 128.376 65.8213 126.882 66.952H128.706C129.453 66.952 129.976 66.92 130.274 66.856C130.573 66.792 130.744 66.76 130.786 66.76C131.085 66.76 131.234 66.92 131.234 67.24C131.234 67.56 131.021 67.7307 130.594 67.752C128.952 67.752 127.373 67.7307 125.858 67.688C123.469 69.2027 121.122 69.96 118.818 69.96C117.73 69.96 116.866 69.7573 116.226 69.352C115.586 68.9467 115.266 68.5413 115.266 68.136C115.266 67.7093 115.437 67.3787 115.778 67.144C116.141 66.9093 116.642 66.792 117.282 66.792C119.778 66.792 122.573 66.8453 125.666 66.952C126.946 65.9067 127.97 64.7013 128.738 63.336C129.506 61.9493 129.89 60.7013 129.89 59.592C129.89 57.8213 128.941 56.936 127.042 56.936C126.296 56.936 125.517 57.0533 124.706 57.288C123.917 57.5227 123.437 57.6933 123.266 57.8C123.117 57.8853 123.021 57.928 122.978 57.928C122.85 57.928 122.786 57.8427 122.786 57.672C122.786 57.48 123.064 57.256 123.618 57C126.05 55.8267 128.429 54.2693 130.754 52.328C133.08 50.3653 134.242 48.968 134.242 48.136C134.242 47.752 133.944 47.56 133.346 47.56C130.914 47.5813 127.576 49.4053 123.33 53.032C122.477 55.2293 121.069 57.928 119.106 61.128C117.165 64.328 115.128 67.1867 112.994 69.704C110.861 72.2427 109.272 73.512 108.226 73.512C107.586 73.512 107.266 73.1813 107.266 72.52C107.266 71.0053 108.696 68.3067 111.554 64.424C114.434 60.5413 117.688 56.968 121.314 53.704C121.954 52.1467 122.274 51.016 122.274 50.312C122.274 49.5867 122.104 49.0213 121.762 48.616C121.421 48.1893 120.92 47.88 120.258 47.688C119.213 47.4107 118.104 47.272 116.93 47.272C115.778 47.272 114.893 47.304 114.274 47.368C113.656 47.4107 112.898 47.5173 112.002 47.688C111.128 47.8373 110.413 48.1147 109.858 48.52C109.304 48.904 109.026 49.4053 109.026 50.024C109.026 50.6213 109.325 51.0907 109.922 51.432C110.52 51.752 111.245 51.976 112.098 52.104C112.973 52.232 113.837 52.3707 114.69 52.52C115.544 52.6693 116.269 52.968 116.866 53.416C117.464 53.8427 117.762 54.4507 117.762 55.24C117.762 55.4533 117.709 55.56 117.602 55.56C117.517 55.56 117.442 55.528 117.378 55.464C117.336 55.4 117.25 55.272 117.122 55.08C116.93 54.8027 116.642 54.5893 116.258 54.44C115.896 54.2907 115.32 54.152 114.53 54.024C113.762 53.8747 113.026 53.7253 112.322 53.576C111.64 53.4053 110.946 53.192 110.242 52.936C109.538 52.68 108.973 52.3173 108.546 51.848C108.12 51.3787 107.906 50.8347 107.906 50.216C107.906 49.576 108.173 49.0107 108.706 48.52C109.24 48.0293 109.944 47.6453 110.818 47.368C112.61 46.8347 114.477 46.568 116.418 46.568C121.453 46.568 123.97 47.8907 123.97 50.536C123.97 50.7707 123.917 51.1227 123.81 51.592C128.12 48.1147 131.618 46.376 134.306 46.376C135.501 46.376 136.098 46.7387 136.098 47.464C136.098 48.5093 135 49.992 132.802 51.912C130.626 53.832 128.376 55.3253 126.05 56.392ZM109.026 72.584C109.645 72.584 111.298 70.6107 113.986 66.664C116.696 62.696 118.861 59.0053 120.482 55.592C117.282 58.6427 114.445 61.8213 111.97 65.128C109.517 68.4133 108.29 70.6533 108.29 71.848C108.29 72.3387 108.536 72.584 109.026 72.584ZM124.674 67.656L118.882 67.528C117.24 67.528 116.418 67.7733 116.418 68.264C116.418 68.5413 116.696 68.7973 117.25 69.032C117.805 69.288 118.445 69.416 119.17 69.416C121.069 69.416 122.904 68.8293 124.674 67.656ZM136.333 68.584C136.333 68.264 136.483 67.848 136.781 67.336C137.101 66.824 137.272 66.5253 137.293 66.44C137.315 66.3547 137.293 66.312 137.229 66.312C137.165 66.312 137.069 66.376 136.941 66.504C136.835 66.6107 136.184 67.0587 134.989 67.848C133.816 68.616 133.005 69 132.557 69C132.259 69 132.109 68.808 132.109 68.424C132.109 68.04 132.707 67.048 133.901 65.448C135.096 63.848 135.939 63.048 136.429 63.048C136.536 63.048 136.632 63.1013 136.717 63.208C136.824 63.2933 136.877 63.368 136.877 63.432C136.877 63.4747 136.323 64.1253 135.213 65.384C134.125 66.6427 133.581 67.4533 133.581 67.816C133.581 67.9013 133.624 67.944 133.709 67.944C134.115 67.944 134.989 67.4 136.333 66.312C137.677 65.224 138.627 64.3813 139.181 63.784C139.757 63.1867 140.205 62.888 140.525 62.888C140.845 62.888 141.005 63.0267 141.005 63.304C141.005 63.4747 140.941 63.6453 140.813 63.816C140.685 63.9867 140.44 64.296 140.077 64.744C139.736 65.1707 139.416 65.576 139.117 65.96C138.285 67.0267 137.869 67.6987 137.869 67.976C137.869 68.232 137.976 68.36 138.189 68.36C138.424 68.36 138.979 68.0613 139.853 67.464C141.475 66.3973 142.957 65.32 144.301 64.232L145.005 63.656C145.155 63.5493 145.283 63.496 145.389 63.496C145.496 63.496 145.549 63.56 145.549 63.688V63.784C145.635 63.784 145.059 64.2533 143.821 65.192C142.605 66.1307 141.293 67.0693 139.885 68.008C138.499 68.9467 137.624 69.416 137.261 69.416C136.643 69.416 136.333 69.1387 136.333 68.584ZM152.687 63.688C152.858 63.5813 152.997 63.528 153.103 63.528C153.231 63.528 153.295 63.6027 153.295 63.752V63.816C151.61 65.3093 149.871 66.6213 148.079 67.752C146.287 68.8827 144.794 69.448 143.599 69.448C142.661 69.448 142.191 68.8933 142.191 67.784C142.191 66.6533 142.863 65.4267 144.207 64.104C145.573 62.7813 147.045 62.12 148.623 62.12C149.093 62.1627 149.381 62.2373 149.487 62.344C149.615 62.4507 149.679 62.6 149.679 62.792C149.679 62.984 149.477 63.336 149.071 63.848C148.687 64.3387 148.335 64.584 148.015 64.584C147.653 64.52 147.471 64.392 147.471 64.2C147.471 64.1147 147.567 63.976 147.759 63.784C148.122 63.464 148.303 63.2293 148.303 63.08C148.303 62.9307 148.186 62.856 147.951 62.856C147.205 62.8773 146.266 63.496 145.135 64.712C144.005 65.9067 143.439 66.8987 143.439 67.688C143.439 68.2853 143.823 68.584 144.591 68.584C145.381 68.584 146.223 68.3067 147.119 67.752C148.698 66.792 150.287 65.6507 151.887 64.328L152.687 63.688ZM160.5 63.688C160.671 63.5813 160.809 63.528 160.916 63.528C161.044 63.528 161.108 63.6027 161.108 63.752V63.816C159.423 65.3093 157.684 66.6213 155.892 67.752C154.1 68.8827 152.607 69.448 151.412 69.448C150.473 69.448 150.004 68.8933 150.004 67.784C150.004 66.6533 150.676 65.4267 152.02 64.104C153.385 62.7813 154.857 62.12 156.436 62.12C156.905 62.1627 157.193 62.2373 157.3 62.344C157.428 62.4507 157.492 62.6 157.492 62.792C157.492 62.984 157.289 63.336 156.884 63.848C156.5 64.3387 156.148 64.584 155.828 64.584C155.465 64.52 155.284 64.392 155.284 64.2C155.284 64.1147 155.38 63.976 155.572 63.784C155.935 63.464 156.116 63.2293 156.116 63.08C156.116 62.9307 155.999 62.856 155.764 62.856C155.017 62.8773 154.079 63.496 152.948 64.712C151.817 65.9067 151.252 66.8987 151.252 67.688C151.252 68.2853 151.636 68.584 152.404 68.584C153.193 68.584 154.036 68.3067 154.932 67.752C156.511 66.792 158.1 65.6507 159.7 64.328L160.5 63.688ZM163.992 59.336C164.206 59.336 164.366 59.4 164.472 59.528C164.6 59.656 164.664 59.8373 164.664 60.072C164.664 60.3067 164.504 60.6053 164.184 60.968C163.864 61.3307 163.587 61.512 163.352 61.512C163.118 61.512 162.947 61.448 162.84 61.32C162.734 61.1707 162.68 61.0107 162.68 60.84C162.68 60.648 162.851 60.3493 163.192 59.944C163.534 59.5387 163.8 59.336 163.992 59.336ZM166.648 63.656C166.819 63.5493 166.947 63.496 167.032 63.496C167.139 63.496 167.192 63.56 167.192 63.688V63.784C167.278 63.784 166.702 64.2533 165.464 65.192C164.248 66.1307 162.936 67.0693 161.528 68.008C160.142 68.9467 159.267 69.416 158.904 69.416C158.286 69.416 157.976 69.16 157.976 68.648C157.976 68.0293 158.51 66.8667 159.576 65.16C160.643 63.432 161.422 62.568 161.912 62.568C162.275 62.568 162.456 62.7067 162.456 62.984C162.456 63.2613 161.966 64.0187 160.984 65.256C160.003 66.4933 159.512 67.3787 159.512 67.912C159.512 68.2107 159.619 68.36 159.832 68.36C160.067 68.36 160.632 68.0613 161.528 67.464C163.128 66.3973 164.6 65.32 165.944 64.232L166.648 63.656ZM169.064 66.248C170.258 66.248 171.688 65.576 173.352 64.232L173.896 64.392C171.805 66.1413 170.002 67.016 168.488 67.016C168.317 67.016 168.189 67.0053 168.104 66.984C167.528 67.688 166.898 68.264 166.216 68.712C165.533 69.1387 164.936 69.352 164.424 69.352C163.613 69.352 163.208 68.904 163.208 68.008C163.208 67.0907 163.965 65.8747 165.48 64.36C165.224 63.7413 165.096 63.0907 165.096 62.408C165.096 61.7253 165.341 61.1707 165.832 60.744C166.322 60.3173 166.888 60.104 167.528 60.104C168.189 60.104 168.744 60.3173 169.192 60.744C169.64 61.1707 169.864 61.7787 169.864 62.568C169.864 63.784 169.469 65 168.68 66.216C168.765 66.2373 168.893 66.248 169.064 66.248ZM168.04 65.928C168.701 64.8187 169.032 63.88 169.032 63.112C169.032 62.3227 168.84 61.7467 168.456 61.384C168.072 61 167.698 60.808 167.336 60.808C166.589 60.808 166.216 61.192 166.216 61.96C166.216 62.728 166.386 63.496 166.728 64.264C167.069 65.0107 167.506 65.5653 168.04 65.928ZM164.52 67.816C164.52 68.2427 164.797 68.456 165.352 68.456C165.906 68.456 166.61 67.8907 167.464 66.76C166.888 66.4613 166.376 65.9387 165.928 65.192C164.989 66.216 164.52 67.0907 164.52 67.816ZM186.998 63.784C182.497 67.5387 179.713 69.416 178.646 69.416C178.027 69.416 177.718 69.16 177.718 68.648C177.718 68.136 177.942 67.528 178.39 66.824C178.859 66.12 179.318 65.5013 179.766 64.968C180.235 64.4133 180.47 64.0827 180.47 63.976C180.47 63.8693 180.438 63.816 180.374 63.816C178.39 65.1387 177.206 65.9493 176.822 66.248C176.459 66.5467 175.851 67.0373 174.998 67.72C174.166 68.4027 173.622 68.8293 173.366 69C173.11 69.1707 172.833 69.256 172.534 69.256C172.235 69.256 172.086 69.128 172.086 68.872C172.086 68.5733 172.683 67.6347 173.878 66.056C175.03 64.4773 175.606 63.592 175.606 63.4C175.606 63.3573 175.563 63.336 175.478 63.336C175.414 63.336 174.497 63.9867 172.726 65.288L172.598 64.808C174.113 63.592 175.137 62.8133 175.67 62.472C176.203 62.1307 176.63 61.96 176.95 61.96C177.291 61.96 177.462 62.12 177.462 62.44C177.462 62.6533 176.854 63.528 175.638 65.064C174.443 66.5787 173.846 67.4 173.846 67.528C173.846 67.6347 173.878 67.688 173.942 67.688C174.027 67.688 175.243 66.8347 177.59 65.128C179.958 63.4 181.398 62.536 181.91 62.536C182.059 62.536 182.198 62.6 182.326 62.728C182.475 62.8347 182.55 62.9413 182.55 63.048C182.55 63.304 181.985 64.1573 180.854 65.608C179.723 67.0373 179.158 67.848 179.158 68.04C179.158 68.232 179.286 68.328 179.542 68.328C179.819 68.328 180.395 68.04 181.27 67.464C182.87 66.4187 184.342 65.3413 185.686 64.232L186.39 63.656C186.539 63.5493 186.678 63.496 186.806 63.496C186.934 63.496 186.998 63.56 186.998 63.688V63.784ZM194.574 63.688C194.723 63.5813 194.862 63.528 194.99 63.528C195.118 63.528 195.182 63.6027 195.182 63.752V63.816C192.963 65.6507 191.118 67.0267 189.646 67.944C188.174 68.8613 186.84 69.32 185.646 69.32C184.686 69.32 184.206 68.8507 184.206 67.912C184.206 66.5253 184.91 65.1067 186.318 63.656C187.726 62.184 188.91 61.448 189.87 61.448C190.403 61.448 190.67 61.7467 190.67 62.344C190.563 63.5173 188.878 65.096 185.614 67.08V67.4C185.614 68.104 185.976 68.456 186.702 68.456C187.448 68.456 188.248 68.2107 189.102 67.72C190.766 66.7387 192.323 65.6187 193.774 64.36L194.574 63.688ZM189.038 62.44C188.568 62.44 187.96 62.8347 187.214 63.624C186.488 64.4133 185.998 65.3093 185.742 66.312C186.766 65.6933 187.63 65.0427 188.334 64.36C189.038 63.656 189.39 63.1653 189.39 62.888C189.39 62.5893 189.272 62.44 189.038 62.44Z" fill="black"/>
</g>
<defs>
<clipPath id="clip0_2015_2">
<rect width="210" height="80" fill="white"/>
</clipPath>
</defs>
</svg>
